<svg width="665" height="340" viewBox="0 0 665 340" fill="none" xmlns="http://www.w3.org/2000/svg">
<path d="M164.066 24.1113C180.561 23.3441 196.788 26.7206 208.178 28.7842C226.378 32.0814 233.335 32.7652 243.319 33.7471L243.638 33.7783L244.189 33.833L244.08 34.376L243.589 34.2764L244.08 34.3769C244.079 34.3778 244.079 34.3793 244.079 34.3809C244.078 34.3842 244.077 34.3892 244.076 34.3955C244.073 34.4086 244.068 34.4281 244.063 34.4541C244.052 34.5065 244.037 34.5857 244.016 34.6894C243.974 34.8969 243.91 35.2057 243.828 35.6113C243.662 36.423 243.418 37.6227 243.101 39.1738C242.466 42.2766 241.54 46.7869 240.376 52.416C238.047 63.6745 234.766 79.4102 230.954 97.3174C223.328 133.131 213.577 177.637 205.075 212.395L205.071 212.412L205.066 212.429C192.042 253.002 171.38 286.755 128.692 304.573C115.464 310.094 99.4278 314.902 83.4234 315.754C67.4165 316.606 51.404 313.5 38.2798 303.152C25.0983 292.759 21.8178 277.921 25.2896 262.96C28.7569 248.019 38.9557 232.926 52.7769 221.869C66.5512 210.85 81.4259 201.299 94.9156 192.843C108.421 184.376 120.511 177.022 128.776 170.37C137.065 163.699 150.221 152.72 162.148 139.296C174.083 125.863 184.741 110.03 188.099 93.6592C192.1 74.1523 193.577 60.7437 191.848 51.666C190.987 47.1445 189.335 43.7269 186.826 41.165C184.315 38.6014 180.908 36.8554 176.468 35.7451C172.536 34.7618 166.593 34.3859 160.375 34.8213C154.157 35.2566 147.721 36.4989 142.794 38.7158C137.824 40.9526 134.129 43.2999 131.684 45.6221C129.235 47.9486 128.09 50.2012 128.089 52.2588C128.089 54.4225 128.816 57.1093 130.402 58.9023C131.187 59.7905 132.179 60.4554 133.4 60.7441C134.622 61.0331 136.115 60.9547 137.917 60.291C147.477 56.7688 154.036 56.2598 158.089 56.2598H161.4C163.162 56.2599 164.589 57.6885 164.589 59.4502C164.589 61.2707 163.078 62.7017 161.284 62.7051C157.031 62.7128 150.888 63.1099 146.254 64.7314C136.299 68.2152 132.333 70.6958 125.827 74.1992C122.548 75.9646 117.889 77.9801 113.162 79.3037C108.455 80.6215 103.591 81.2806 99.9517 80.2412C94.9042 78.7996 90.7824 76.1534 88.1861 72.541C85.5834 68.9196 84.5413 64.3634 85.5992 59.1758C87.214 51.2574 92.8178 45.5595 99.8052 41.1699C106.79 36.7821 115.235 33.6541 122.643 30.9082L122.916 30.8076C135.759 26.0469 150.462 24.7441 164.066 24.1113ZM164.274 174.082C152.523 181.816 138.961 187.783 125.356 195.059C111.78 202.319 98.2332 210.852 86.6763 223.665C70.5937 241.496 67.5215 258.412 69.5562 269.094C70.5747 274.44 73.7379 281.296 79.7584 286.503C85.7933 291.723 94.6705 295.26 107.05 293.997C116.121 293.071 125.232 288.127 132.88 280.738C140.532 273.346 146.751 263.478 150.026 252.645C155.238 235.403 162.543 193.07 165.044 174.567L165.191 173.479L164.274 174.082ZM307.998 26.3037C306.994 38.5957 299.882 74.0099 292.158 109.182C284.431 144.364 276.075 179.382 272.568 190.905C267.107 208.849 257.723 232.35 253.386 242.653C264.325 241.278 273.868 241.66 283.45 242.575C293.304 243.517 303.125 245.011 314.622 245.761C332.939 246.955 343.39 241.935 346.257 239.387L347.315 238.446L347.083 239.842L347.057 239.996C346.786 241.63 346.127 245.589 344.799 250.098C343.474 254.598 341.47 259.69 338.486 263.565C334.105 269.255 331.651 273.128 327.27 275.633C322.884 278.141 316.606 279.268 304.61 279.76C298.057 280.028 290.753 278.893 281.458 277.517C272.147 276.138 260.789 274.508 246.064 273.76C222.551 272.564 195.462 279.43 186.669 282.582L186.15 281.754C212.04 256.362 221.911 222.507 229.605 192.636C246.515 126.989 254.412 77.0622 264.011 34.167L264.089 33.8184L264.445 33.7793H264.448C264.449 33.7791 264.452 33.7786 264.455 33.7783C264.461 33.7776 264.472 33.7758 264.485 33.7744C264.511 33.7715 264.55 33.7674 264.601 33.7617C264.704 33.7503 264.856 33.7331 265.052 33.7109C265.446 33.6665 266.018 33.6011 266.731 33.5176C268.158 33.3504 270.151 33.1102 272.417 32.8184C276.95 32.2344 282.563 31.4452 286.906 30.6201C290.932 29.8551 296.047 28.6456 300.16 27.626C302.215 27.1165 304.018 26.6545 305.307 26.3203C305.952 26.1532 306.468 26.0182 306.823 25.9248C307 25.8781 307.137 25.8419 307.23 25.8174C307.276 25.8051 307.312 25.7953 307.336 25.7891C307.347 25.786 307.356 25.7838 307.362 25.7822C307.365 25.7815 307.367 25.7807 307.369 25.7803H307.371L308.055 25.5967L307.998 26.3037Z" fill="#5B111F"/>
<mask id="path-3-outside-1_5715_110104" maskUnits="userSpaceOnUse" x="378.315" y="69.9434" width="264" height="200" fill="black">
<rect fill="white" x="378.315" y="69.9434" width="264" height="200"/>
<path d="M419.647 76.8742C416.693 76.8742 414.648 77.1404 413.512 77.6726C412.073 78.1288 411.088 78.8512 410.558 79.8397C410.103 80.8282 409.876 82.0828 409.876 83.6035V131.507C409.876 139.034 408.399 144.775 405.445 148.729C402.719 152.607 398.894 154.546 393.971 154.546C390.562 154.546 387.457 153.9 384.655 152.607C381.095 150.782 379.315 148.273 379.315 145.079C379.315 143.33 379.845 141.924 380.905 140.859C381.966 139.567 383.216 138.92 384.655 138.92C388.139 138.92 389.919 140.555 389.994 143.825C389.994 144.433 389.994 145.003 389.994 145.536C390.07 146.068 390.146 146.524 390.222 146.904C390.297 148.197 390.524 148.881 390.903 148.957C391.736 149.565 392.683 149.87 393.743 149.87C395.41 149.87 396.773 149.565 397.833 148.957C398.97 148.349 399.916 147.284 400.674 145.764C401.961 142.95 402.605 139.034 402.605 134.016V83.6035C402.605 81.0943 401.999 79.3835 400.787 78.471C399.045 77.4065 396.356 76.8742 392.721 76.8742V73.2245H419.647V76.8742Z"/>
<path d="M477.865 152.151C475.517 152.151 473.207 152.227 470.934 152.379C468.662 152.607 466.39 152.911 464.118 153.291C464.042 152.303 463.966 151.314 463.891 150.326C463.891 149.413 463.853 148.501 463.777 147.589C458.854 152.455 452.605 154.888 445.031 154.888C441.093 154.888 437.95 154.052 435.602 152.379C432.118 150.022 430.376 146.144 430.376 140.745V110.521C430.376 108.924 429.997 107.859 429.24 107.327C427.952 106.567 426.021 106.186 423.445 106.186C423.37 105.806 423.332 105.426 423.332 105.046C423.332 104.59 423.294 104.171 423.218 103.791C425.642 102.955 427.99 102.156 430.262 101.396C432.61 100.636 434.958 99.8754 437.306 99.115V140.175C437.306 146.182 440.638 149.185 447.304 149.185C454.196 149.185 459.687 147.246 463.777 143.368V110.292C463.777 109.304 463.398 108.582 462.641 108.125C461.429 106.681 459.536 105.958 456.96 105.958C456.885 105.578 456.847 105.198 456.847 104.818C456.847 104.438 456.809 104.057 456.733 103.677C461.278 102.004 465.936 100.446 470.707 99.001V142.912C470.707 143.749 470.821 144.433 471.048 144.965C471.2 145.421 471.351 145.84 471.503 146.22C471.654 146.524 471.806 146.79 471.957 147.018C473.093 148.311 475.062 148.957 477.865 148.957V152.151Z"/>
<path d="M504.996 152.721H483.183V149.071C486.137 149.071 488.144 148.653 489.204 147.817C490.113 147.056 490.568 145.421 490.568 142.912V83.4894C490.568 82.1968 490.113 81.2844 489.204 80.7521C488.296 80.1438 486.364 79.8397 483.41 79.8397L482.729 77.1023C485.152 76.1899 487.614 75.3155 490.113 74.4791C492.613 73.5666 495.074 72.6542 497.498 71.7417V142.912C497.498 145.269 497.915 146.866 498.748 147.703C499.354 148.083 500.149 148.387 501.134 148.615C502.194 148.919 503.481 149.071 504.996 149.071V152.721Z"/>
<path d="M528.841 77.3305C528.841 79.1553 528.235 80.6761 527.023 81.8927C525.812 83.1093 524.297 83.7176 522.479 83.7176C520.813 83.7176 519.411 83.1093 518.275 81.8927C517.215 80.6761 516.685 79.1553 516.685 77.3305C516.685 75.5056 517.253 73.9848 518.389 72.7682C519.525 71.5517 520.888 70.9434 522.479 70.9434C524.297 70.9434 525.812 71.5517 527.023 72.7682C528.235 73.9848 528.841 75.5056 528.841 77.3305ZM534.181 152.835H512.936V149.071C516.041 149.071 518.048 148.615 518.957 147.703C519.714 147.018 520.093 145.764 520.093 143.939V111.091C520.093 109.418 519.752 108.277 519.071 107.669C518.237 106.985 516.23 106.643 513.049 106.643L512.595 104.133L527.023 98.6588V143.939C527.023 146.068 527.364 147.398 528.046 147.931C529.03 148.691 531.075 149.071 534.181 149.071V152.835Z"/>
<path d="M584.164 139.605C584.164 142.722 583.293 145.498 581.551 147.931C581.172 148.311 580.794 148.691 580.415 149.071C580.112 149.451 579.771 149.832 579.392 150.212C575.984 153.177 571.364 154.66 565.532 154.66C561.518 154.66 558.034 154.014 555.08 152.721C554.701 152.569 554.322 152.455 553.944 152.379C553.641 152.379 553.3 152.379 552.921 152.379H551.785C550.952 152.759 550.157 153.063 549.399 153.291C548.642 153.595 547.847 153.9 547.013 154.204C545.953 151.314 544.855 148.501 543.719 145.764C542.583 142.95 541.484 140.099 540.424 137.209C540.727 136.981 540.992 136.753 541.219 136.525C541.522 136.297 541.863 136.107 542.242 135.955C545.499 140.517 548.604 143.863 551.558 145.992C556.254 149.033 560.874 150.554 565.418 150.554C568.978 150.554 571.97 149.451 574.393 147.246C576.363 145.269 577.347 142.874 577.347 140.061C577.347 138.236 576.628 136.601 575.189 135.156C574.886 134.928 574.507 134.662 574.053 134.358C573.598 134.054 573.068 133.712 572.462 133.332C571.477 132.723 570.19 132.115 568.599 131.507C567.009 130.822 565.077 130.1 562.805 129.34C559.245 128.123 556.292 127.021 553.944 126.032C551.596 124.968 549.816 123.941 548.604 122.953C544.06 120.139 541.787 116.413 541.787 111.775C541.787 107.517 543.794 104.133 547.809 101.624C550.838 99.7233 554.625 98.7729 559.17 98.7729C563.108 98.7729 567.16 99.5332 571.326 101.054C571.932 100.902 572.576 100.636 573.257 100.256C573.939 99.7994 574.696 99.2671 575.53 98.6588C576.59 101.396 577.65 104.171 578.711 106.985C579.771 109.722 580.831 112.498 581.892 115.311C581.513 115.463 581.134 115.653 580.756 115.881C580.453 116.109 580.112 116.299 579.733 116.451C577.84 112.802 575.302 109.836 572.121 107.555C567.425 104.438 563.108 102.879 559.17 102.879C556.292 102.879 554.019 103.373 552.353 104.362C549.854 105.73 548.604 108.087 548.604 111.433C548.604 113.562 549.702 115.387 551.899 116.908C552.202 117.06 552.505 117.212 552.808 117.364C553.111 117.516 553.451 117.668 553.83 117.82C554.89 118.428 556.216 119.075 557.806 119.759C559.397 120.443 561.177 121.09 563.146 121.698C567.236 122.991 570.606 124.283 573.257 125.576C575.984 126.792 578.067 127.933 579.506 128.998C582.611 131.507 584.164 135.042 584.164 139.605Z"/>
<path d="M600.211 102.309C604.755 100.18 609.981 99.115 615.889 99.115C620.66 99.115 624.523 100.37 627.477 102.879C630.658 105.768 632.249 109.798 632.249 114.969V144.509C632.249 144.889 632.249 145.345 632.249 145.878C632.324 146.41 632.4 146.942 632.476 147.474C632.627 148.007 632.817 148.463 633.044 148.843C633.347 149.223 633.688 149.413 634.066 149.413C635.202 149.413 636.831 148.577 638.952 146.904L640.315 148.615C636.982 152.645 634.029 154.66 631.453 154.66C628.121 154.66 626.114 152.531 625.432 148.273C620.736 152.531 614.753 154.66 607.482 154.66C604.982 154.66 602.71 154.394 600.665 153.862C598.696 153.329 597.029 152.493 595.666 151.352C592.864 148.995 591.463 145.688 591.463 141.43C591.463 138.236 592.523 135.385 594.644 132.875C596.84 130.29 599.642 128.161 603.051 126.488C608.883 123.447 616.305 121.356 625.318 120.215V113.144C625.318 110.178 624.409 107.783 622.592 105.958C621.531 104.894 620.282 104.133 618.843 103.677C617.479 103.221 616.002 102.993 614.412 102.993C611.382 102.993 608.807 103.601 606.686 104.818C605.399 105.654 604.376 106.491 603.619 107.327C602.861 108.087 602.483 108.962 602.483 109.95V110.521C602.483 114.246 600.854 116.109 597.597 116.109C594.644 116.109 593.167 114.398 593.167 110.977C593.167 107.403 595.515 104.514 600.211 102.309ZM625.318 124.549C618.653 125.234 612.48 127.135 606.8 130.252C601.65 133.142 599.074 136.829 599.074 141.315C599.074 143.749 600.059 145.726 602.028 147.246C603.998 148.691 606.459 149.413 609.413 149.413C612.14 149.413 614.98 148.881 617.934 147.817C620.357 146.98 622.819 145.536 625.318 143.483V124.549Z"/>
<path d="M443.505 247.045L435.666 266.89H379.883V263.127C383.746 263.127 386.548 262.556 388.29 261.416C389.578 260.503 390.222 258.906 390.222 256.625V197.431C390.222 194.921 389.616 193.211 388.404 192.298C386.965 191.31 384.124 190.815 379.883 190.815V187.166H408.626V190.815C403.628 190.815 400.522 191.31 399.31 192.298C398.099 193.287 397.493 194.998 397.493 197.431V256.739C397.493 259.021 397.985 260.617 398.97 261.53C400.106 262.442 401.999 262.898 404.65 262.898H417.261C422.411 262.898 426.728 261.492 430.212 258.678C433.848 256.093 437.332 251.721 440.664 245.562L443.505 247.045Z"/>
<path d="M496.704 253.09C497.082 253.394 497.461 253.698 497.84 254.002C498.294 254.306 498.711 254.61 499.089 254.915C497.272 257.652 495.265 259.933 493.068 261.758C490.872 263.583 488.524 265.103 486.024 266.32C482.616 267.993 478.943 268.829 475.004 268.829C467.506 268.829 461.371 266.434 456.599 261.644C451.525 256.549 448.987 249.668 448.987 241C448.987 232.636 451.411 225.906 456.258 220.812C461.03 215.565 467.089 212.942 474.436 212.942C481.783 212.942 487.577 215.071 491.818 219.329C496.363 223.663 498.635 229.936 498.635 238.148C491.591 238.377 484.661 238.643 477.844 238.947C471.028 239.175 464.06 239.403 456.94 239.631C456.94 239.935 456.902 240.239 456.826 240.544C456.826 240.772 456.826 241.038 456.826 241.342C456.826 244.536 457.243 247.425 458.076 250.01C458.985 252.595 460.273 254.915 461.939 256.968C465.423 261.53 470.308 263.811 476.595 263.811C479.927 263.811 483.411 262.936 487.047 261.188C488.713 260.199 490.341 259.059 491.932 257.766C493.598 256.397 495.189 254.839 496.704 253.09ZM457.167 235.297C462.848 235.145 468.453 234.955 473.982 234.727C479.511 234.499 485.115 234.309 490.796 234.156C490.72 229.138 489.167 225.108 486.138 222.067C483.033 218.721 479.132 217.048 474.436 217.048C469.892 217.048 465.915 218.873 462.507 222.523C459.326 225.868 457.546 230.127 457.167 235.297Z"/>
<path d="M555.123 240.886C555.123 249.402 552.7 256.207 547.852 261.302C543.232 266.396 537.324 268.943 530.129 268.943C522.858 268.943 516.912 266.396 512.292 261.302C507.445 256.207 505.021 249.402 505.021 240.886C505.021 232.37 507.445 225.564 512.292 220.47C516.912 215.375 522.858 212.828 530.129 212.828C537.324 212.828 543.232 215.375 547.852 220.47C552.7 225.564 555.123 232.37 555.123 240.886ZM547.398 240.886C547.398 233.89 545.731 228.15 542.399 223.663C539.294 219.177 535.204 216.934 530.129 216.934C525.13 216.934 520.964 219.177 517.632 223.663C514.375 228.15 512.747 233.89 512.747 240.886C512.747 247.805 514.337 253.546 517.518 258.108C520.775 262.518 524.979 264.723 530.129 264.723C535.052 264.723 539.142 262.518 542.399 258.108C545.731 253.622 547.398 247.881 547.398 240.886Z"/>
<path d="M616.032 266.776H593.878V263.127C596.529 263.127 598.384 262.784 599.445 262.1C600.732 261.264 601.376 259.629 601.376 257.196V228.568C601.376 222.181 598.384 218.987 592.401 218.987C588.841 218.987 585.849 219.595 583.425 220.812C582.365 221.344 581.115 222.067 579.676 222.979C578.237 223.815 576.647 224.842 574.905 226.059V257.196C574.905 259.477 575.397 260.998 576.382 261.758C576.988 262.138 577.821 262.442 578.881 262.67C579.941 262.974 581.229 263.127 582.744 263.127V266.776H560.59V263.127C563.468 263.127 565.551 262.67 566.838 261.758C567.596 260.998 567.975 259.477 567.975 257.196V225.716C567.975 223.663 567.596 222.371 566.838 221.839C565.778 221.002 563.847 220.584 561.044 220.584C560.893 220.204 560.779 219.786 560.703 219.329C560.703 218.873 560.628 218.455 560.476 218.075C562.9 217.238 565.286 216.402 567.634 215.565C570.057 214.729 572.481 213.893 574.905 213.056V221.154C581.343 215.832 587.894 213.17 594.559 213.17C599.179 213.17 602.626 214.501 604.898 217.162C607.17 219.9 608.306 223.777 608.306 228.796V257.082C608.306 259.439 608.761 260.998 609.669 261.758C610.275 262.138 611.109 262.442 612.169 262.67C613.229 262.974 614.517 263.127 616.032 263.127V266.776Z"/>
</mask>
<path d="M419.647 76.8742C416.693 76.8742 414.648 77.1404 413.512 77.6726C412.073 78.1288 411.088 78.8512 410.558 79.8397C410.103 80.8282 409.876 82.0828 409.876 83.6035V131.507C409.876 139.034 408.399 144.775 405.445 148.729C402.719 152.607 398.894 154.546 393.971 154.546C390.562 154.546 387.457 153.9 384.655 152.607C381.095 150.782 379.315 148.273 379.315 145.079C379.315 143.33 379.845 141.924 380.905 140.859C381.966 139.567 383.216 138.92 384.655 138.92C388.139 138.92 389.919 140.555 389.994 143.825C389.994 144.433 389.994 145.003 389.994 145.536C390.07 146.068 390.146 146.524 390.222 146.904C390.297 148.197 390.524 148.881 390.903 148.957C391.736 149.565 392.683 149.87 393.743 149.87C395.41 149.87 396.773 149.565 397.833 148.957C398.97 148.349 399.916 147.284 400.674 145.764C401.961 142.95 402.605 139.034 402.605 134.016V83.6035C402.605 81.0943 401.999 79.3835 400.787 78.471C399.045 77.4065 396.356 76.8742 392.721 76.8742V73.2245H419.647V76.8742Z" fill="#5B111F"/>
<path d="M477.865 152.151C475.517 152.151 473.207 152.227 470.934 152.379C468.662 152.607 466.39 152.911 464.118 153.291C464.042 152.303 463.966 151.314 463.891 150.326C463.891 149.413 463.853 148.501 463.777 147.589C458.854 152.455 452.605 154.888 445.031 154.888C441.093 154.888 437.95 154.052 435.602 152.379C432.118 150.022 430.376 146.144 430.376 140.745V110.521C430.376 108.924 429.997 107.859 429.24 107.327C427.952 106.567 426.021 106.186 423.445 106.186C423.37 105.806 423.332 105.426 423.332 105.046C423.332 104.59 423.294 104.171 423.218 103.791C425.642 102.955 427.99 102.156 430.262 101.396C432.61 100.636 434.958 99.8754 437.306 99.115V140.175C437.306 146.182 440.638 149.185 447.304 149.185C454.196 149.185 459.687 147.246 463.777 143.368V110.292C463.777 109.304 463.398 108.582 462.641 108.125C461.429 106.681 459.536 105.958 456.96 105.958C456.885 105.578 456.847 105.198 456.847 104.818C456.847 104.438 456.809 104.057 456.733 103.677C461.278 102.004 465.936 100.446 470.707 99.001V142.912C470.707 143.749 470.821 144.433 471.048 144.965C471.2 145.421 471.351 145.84 471.503 146.22C471.654 146.524 471.806 146.79 471.957 147.018C473.093 148.311 475.062 148.957 477.865 148.957V152.151Z" fill="#5B111F"/>
<path d="M504.996 152.721H483.183V149.071C486.137 149.071 488.144 148.653 489.204 147.817C490.113 147.056 490.568 145.421 490.568 142.912V83.4894C490.568 82.1968 490.113 81.2844 489.204 80.7521C488.296 80.1438 486.364 79.8397 483.41 79.8397L482.729 77.1023C485.152 76.1899 487.614 75.3155 490.113 74.4791C492.613 73.5666 495.074 72.6542 497.498 71.7417V142.912C497.498 145.269 497.915 146.866 498.748 147.703C499.354 148.083 500.149 148.387 501.134 148.615C502.194 148.919 503.481 149.071 504.996 149.071V152.721Z" fill="#5B111F"/>
<path d="M528.841 77.3305C528.841 79.1553 528.235 80.6761 527.023 81.8927C525.812 83.1093 524.297 83.7176 522.479 83.7176C520.813 83.7176 519.411 83.1093 518.275 81.8927C517.215 80.6761 516.685 79.1553 516.685 77.3305C516.685 75.5056 517.253 73.9848 518.389 72.7682C519.525 71.5517 520.888 70.9434 522.479 70.9434C524.297 70.9434 525.812 71.5517 527.023 72.7682C528.235 73.9848 528.841 75.5056 528.841 77.3305ZM534.181 152.835H512.936V149.071C516.041 149.071 518.048 148.615 518.957 147.703C519.714 147.018 520.093 145.764 520.093 143.939V111.091C520.093 109.418 519.752 108.277 519.071 107.669C518.237 106.985 516.23 106.643 513.049 106.643L512.595 104.133L527.023 98.6588V143.939C527.023 146.068 527.364 147.398 528.046 147.931C529.03 148.691 531.075 149.071 534.181 149.071V152.835Z" fill="#5B111F"/>
<path d="M584.164 139.605C584.164 142.722 583.293 145.498 581.551 147.931C581.172 148.311 580.794 148.691 580.415 149.071C580.112 149.451 579.771 149.832 579.392 150.212C575.984 153.177 571.364 154.66 565.532 154.66C561.518 154.66 558.034 154.014 555.08 152.721C554.701 152.569 554.322 152.455 553.944 152.379C553.641 152.379 553.3 152.379 552.921 152.379H551.785C550.952 152.759 550.157 153.063 549.399 153.291C548.642 153.595 547.847 153.9 547.013 154.204C545.953 151.314 544.855 148.501 543.719 145.764C542.583 142.95 541.484 140.099 540.424 137.209C540.727 136.981 540.992 136.753 541.219 136.525C541.522 136.297 541.863 136.107 542.242 135.955C545.499 140.517 548.604 143.863 551.558 145.992C556.254 149.033 560.874 150.554 565.418 150.554C568.978 150.554 571.97 149.451 574.393 147.246C576.363 145.269 577.347 142.874 577.347 140.061C577.347 138.236 576.628 136.601 575.189 135.156C574.886 134.928 574.507 134.662 574.053 134.358C573.598 134.054 573.068 133.712 572.462 133.332C571.477 132.723 570.19 132.115 568.599 131.507C567.009 130.822 565.077 130.1 562.805 129.34C559.245 128.123 556.292 127.021 553.944 126.032C551.596 124.968 549.816 123.941 548.604 122.953C544.06 120.139 541.787 116.413 541.787 111.775C541.787 107.517 543.794 104.133 547.809 101.624C550.838 99.7233 554.625 98.7729 559.17 98.7729C563.108 98.7729 567.16 99.5332 571.326 101.054C571.932 100.902 572.576 100.636 573.257 100.256C573.939 99.7994 574.696 99.2671 575.53 98.6588C576.59 101.396 577.65 104.171 578.711 106.985C579.771 109.722 580.831 112.498 581.892 115.311C581.513 115.463 581.134 115.653 580.756 115.881C580.453 116.109 580.112 116.299 579.733 116.451C577.84 112.802 575.302 109.836 572.121 107.555C567.425 104.438 563.108 102.879 559.17 102.879C556.292 102.879 554.019 103.373 552.353 104.362C549.854 105.73 548.604 108.087 548.604 111.433C548.604 113.562 549.702 115.387 551.899 116.908C552.202 117.06 552.505 117.212 552.808 117.364C553.111 117.516 553.451 117.668 553.83 117.82C554.89 118.428 556.216 119.075 557.806 119.759C559.397 120.443 561.177 121.09 563.146 121.698C567.236 122.991 570.606 124.283 573.257 125.576C575.984 126.792 578.067 127.933 579.506 128.998C582.611 131.507 584.164 135.042 584.164 139.605Z" fill="#5B111F"/>
<path d="M600.211 102.309C604.755 100.18 609.981 99.115 615.889 99.115C620.66 99.115 624.523 100.37 627.477 102.879C630.658 105.768 632.249 109.798 632.249 114.969V144.509C632.249 144.889 632.249 145.345 632.249 145.878C632.324 146.41 632.4 146.942 632.476 147.474C632.627 148.007 632.817 148.463 633.044 148.843C633.347 149.223 633.688 149.413 634.066 149.413C635.202 149.413 636.831 148.577 638.952 146.904L640.315 148.615C636.982 152.645 634.029 154.66 631.453 154.66C628.121 154.66 626.114 152.531 625.432 148.273C620.736 152.531 614.753 154.66 607.482 154.66C604.982 154.66 602.71 154.394 600.665 153.862C598.696 153.329 597.029 152.493 595.666 151.352C592.864 148.995 591.463 145.688 591.463 141.43C591.463 138.236 592.523 135.385 594.644 132.875C596.84 130.29 599.642 128.161 603.051 126.488C608.883 123.447 616.305 121.356 625.318 120.215V113.144C625.318 110.178 624.409 107.783 622.592 105.958C621.531 104.894 620.282 104.133 618.843 103.677C617.479 103.221 616.002 102.993 614.412 102.993C611.382 102.993 608.807 103.601 606.686 104.818C605.399 105.654 604.376 106.491 603.619 107.327C602.861 108.087 602.483 108.962 602.483 109.95V110.521C602.483 114.246 600.854 116.109 597.597 116.109C594.644 116.109 593.167 114.398 593.167 110.977C593.167 107.403 595.515 104.514 600.211 102.309ZM625.318 124.549C618.653 125.234 612.48 127.135 606.8 130.252C601.65 133.142 599.074 136.829 599.074 141.315C599.074 143.749 600.059 145.726 602.028 147.246C603.998 148.691 606.459 149.413 609.413 149.413C612.14 149.413 614.98 148.881 617.934 147.817C620.357 146.98 622.819 145.536 625.318 143.483V124.549Z" fill="#5B111F"/>
<path d="M443.505 247.045L435.666 266.89H379.883V263.127C383.746 263.127 386.548 262.556 388.29 261.416C389.578 260.503 390.222 258.906 390.222 256.625V197.431C390.222 194.921 389.616 193.211 388.404 192.298C386.965 191.31 384.124 190.815 379.883 190.815V187.166H408.626V190.815C403.628 190.815 400.522 191.31 399.31 192.298C398.099 193.287 397.493 194.998 397.493 197.431V256.739C397.493 259.021 397.985 260.617 398.97 261.53C400.106 262.442 401.999 262.898 404.65 262.898H417.261C422.411 262.898 426.728 261.492 430.212 258.678C433.848 256.093 437.332 251.721 440.664 245.562L443.505 247.045Z" fill="#5B111F"/>
<path d="M496.704 253.09C497.082 253.394 497.461 253.698 497.84 254.002C498.294 254.306 498.711 254.61 499.089 254.915C497.272 257.652 495.265 259.933 493.068 261.758C490.872 263.583 488.524 265.103 486.024 266.32C482.616 267.993 478.943 268.829 475.004 268.829C467.506 268.829 461.371 266.434 456.599 261.644C451.525 256.549 448.987 249.668 448.987 241C448.987 232.636 451.411 225.906 456.258 220.812C461.03 215.565 467.089 212.942 474.436 212.942C481.783 212.942 487.577 215.071 491.818 219.329C496.363 223.663 498.635 229.936 498.635 238.148C491.591 238.377 484.661 238.643 477.844 238.947C471.028 239.175 464.06 239.403 456.94 239.631C456.94 239.935 456.902 240.239 456.826 240.544C456.826 240.772 456.826 241.038 456.826 241.342C456.826 244.536 457.243 247.425 458.076 250.01C458.985 252.595 460.273 254.915 461.939 256.968C465.423 261.53 470.308 263.811 476.595 263.811C479.927 263.811 483.411 262.936 487.047 261.188C488.713 260.199 490.341 259.059 491.932 257.766C493.598 256.397 495.189 254.839 496.704 253.09ZM457.167 235.297C462.848 235.145 468.453 234.955 473.982 234.727C479.511 234.499 485.115 234.309 490.796 234.156C490.72 229.138 489.167 225.108 486.138 222.067C483.033 218.721 479.132 217.048 474.436 217.048C469.892 217.048 465.915 218.873 462.507 222.523C459.326 225.868 457.546 230.127 457.167 235.297Z" fill="#5B111F"/>
<path d="M555.123 240.886C555.123 249.402 552.7 256.207 547.852 261.302C543.232 266.396 537.324 268.943 530.129 268.943C522.858 268.943 516.912 266.396 512.292 261.302C507.445 256.207 505.021 249.402 505.021 240.886C505.021 232.37 507.445 225.564 512.292 220.47C516.912 215.375 522.858 212.828 530.129 212.828C537.324 212.828 543.232 215.375 547.852 220.47C552.7 225.564 555.123 232.37 555.123 240.886ZM547.398 240.886C547.398 233.89 545.731 228.15 542.399 223.663C539.294 219.177 535.204 216.934 530.129 216.934C525.13 216.934 520.964 219.177 517.632 223.663C514.375 228.15 512.747 233.89 512.747 240.886C512.747 247.805 514.337 253.546 517.518 258.108C520.775 262.518 524.979 264.723 530.129 264.723C535.052 264.723 539.142 262.518 542.399 258.108C545.731 253.622 547.398 247.881 547.398 240.886Z" fill="#5B111F"/>
<path d="M616.032 266.776H593.878V263.127C596.529 263.127 598.384 262.784 599.445 262.1C600.732 261.264 601.376 259.629 601.376 257.196V228.568C601.376 222.181 598.384 218.987 592.401 218.987C588.841 218.987 585.849 219.595 583.425 220.812C582.365 221.344 581.115 222.067 579.676 222.979C578.237 223.815 576.647 224.842 574.905 226.059V257.196C574.905 259.477 575.397 260.998 576.382 261.758C576.988 262.138 577.821 262.442 578.881 262.67C579.941 262.974 581.229 263.127 582.744 263.127V266.776H560.59V263.127C563.468 263.127 565.551 262.67 566.838 261.758C567.596 260.998 567.975 259.477 567.975 257.196V225.716C567.975 223.663 567.596 222.371 566.838 221.839C565.778 221.002 563.847 220.584 561.044 220.584C560.893 220.204 560.779 219.786 560.703 219.329C560.703 218.873 560.628 218.455 560.476 218.075C562.9 217.238 565.286 216.402 567.634 215.565C570.057 214.729 572.481 213.893 574.905 213.056V221.154C581.343 215.832 587.894 213.17 594.559 213.17C599.179 213.17 602.626 214.501 604.898 217.162C607.17 219.9 608.306 223.777 608.306 228.796V257.082C608.306 259.439 608.761 260.998 609.669 261.758C610.275 262.138 611.109 262.442 612.169 262.67C613.229 262.974 614.517 263.127 616.032 263.127V266.776Z" fill="#5B111F"/>
<path d="M419.647 76.8742C416.693 76.8742 414.648 77.1404 413.512 77.6726C412.073 78.1288 411.088 78.8512 410.558 79.8397C410.103 80.8282 409.876 82.0828 409.876 83.6035V131.507C409.876 139.034 408.399 144.775 405.445 148.729C402.719 152.607 398.894 154.546 393.971 154.546C390.562 154.546 387.457 153.9 384.655 152.607C381.095 150.782 379.315 148.273 379.315 145.079C379.315 143.33 379.845 141.924 380.905 140.859C381.966 139.567 383.216 138.92 384.655 138.92C388.139 138.92 389.919 140.555 389.994 143.825C389.994 144.433 389.994 145.003 389.994 145.536C390.07 146.068 390.146 146.524 390.222 146.904C390.297 148.197 390.524 148.881 390.903 148.957C391.736 149.565 392.683 149.87 393.743 149.87C395.41 149.87 396.773 149.565 397.833 148.957C398.97 148.349 399.916 147.284 400.674 145.764C401.961 142.95 402.605 139.034 402.605 134.016V83.6035C402.605 81.0943 401.999 79.3835 400.787 78.471C399.045 77.4065 396.356 76.8742 392.721 76.8742V73.2245H419.647V76.8742Z" stroke="#5B111F" stroke-width="2" mask="url(#path-3-outside-1_5715_110104)"/>
<path d="M477.865 152.151C475.517 152.151 473.207 152.227 470.934 152.379C468.662 152.607 466.39 152.911 464.118 153.291C464.042 152.303 463.966 151.314 463.891 150.326C463.891 149.413 463.853 148.501 463.777 147.589C458.854 152.455 452.605 154.888 445.031 154.888C441.093 154.888 437.95 154.052 435.602 152.379C432.118 150.022 430.376 146.144 430.376 140.745V110.521C430.376 108.924 429.997 107.859 429.24 107.327C427.952 106.567 426.021 106.186 423.445 106.186C423.37 105.806 423.332 105.426 423.332 105.046C423.332 104.59 423.294 104.171 423.218 103.791C425.642 102.955 427.99 102.156 430.262 101.396C432.61 100.636 434.958 99.8754 437.306 99.115V140.175C437.306 146.182 440.638 149.185 447.304 149.185C454.196 149.185 459.687 147.246 463.777 143.368V110.292C463.777 109.304 463.398 108.582 462.641 108.125C461.429 106.681 459.536 105.958 456.96 105.958C456.885 105.578 456.847 105.198 456.847 104.818C456.847 104.438 456.809 104.057 456.733 103.677C461.278 102.004 465.936 100.446 470.707 99.001V142.912C470.707 143.749 470.821 144.433 471.048 144.965C471.2 145.421 471.351 145.84 471.503 146.22C471.654 146.524 471.806 146.79 471.957 147.018C473.093 148.311 475.062 148.957 477.865 148.957V152.151Z" stroke="#5B111F" stroke-width="2" mask="url(#path-3-outside-1_5715_110104)"/>
<path d="M504.996 152.721H483.183V149.071C486.137 149.071 488.144 148.653 489.204 147.817C490.113 147.056 490.568 145.421 490.568 142.912V83.4894C490.568 82.1968 490.113 81.2844 489.204 80.7521C488.296 80.1438 486.364 79.8397 483.41 79.8397L482.729 77.1023C485.152 76.1899 487.614 75.3155 490.113 74.4791C492.613 73.5666 495.074 72.6542 497.498 71.7417V142.912C497.498 145.269 497.915 146.866 498.748 147.703C499.354 148.083 500.149 148.387 501.134 148.615C502.194 148.919 503.481 149.071 504.996 149.071V152.721Z" stroke="#5B111F" stroke-width="2" mask="url(#path-3-outside-1_5715_110104)"/>
<path d="M528.841 77.3305C528.841 79.1553 528.235 80.6761 527.023 81.8927C525.812 83.1093 524.297 83.7176 522.479 83.7176C520.813 83.7176 519.411 83.1093 518.275 81.8927C517.215 80.6761 516.685 79.1553 516.685 77.3305C516.685 75.5056 517.253 73.9848 518.389 72.7682C519.525 71.5517 520.888 70.9434 522.479 70.9434C524.297 70.9434 525.812 71.5517 527.023 72.7682C528.235 73.9848 528.841 75.5056 528.841 77.3305ZM534.181 152.835H512.936V149.071C516.041 149.071 518.048 148.615 518.957 147.703C519.714 147.018 520.093 145.764 520.093 143.939V111.091C520.093 109.418 519.752 108.277 519.071 107.669C518.237 106.985 516.23 106.643 513.049 106.643L512.595 104.133L527.023 98.6588V143.939C527.023 146.068 527.364 147.398 528.046 147.931C529.03 148.691 531.075 149.071 534.181 149.071V152.835Z" stroke="#5B111F" stroke-width="2" mask="url(#path-3-outside-1_5715_110104)"/>
<path d="M584.164 139.605C584.164 142.722 583.293 145.498 581.551 147.931C581.172 148.311 580.794 148.691 580.415 149.071C580.112 149.451 579.771 149.832 579.392 150.212C575.984 153.177 571.364 154.66 565.532 154.66C561.518 154.66 558.034 154.014 555.08 152.721C554.701 152.569 554.322 152.455 553.944 152.379C553.641 152.379 553.3 152.379 552.921 152.379H551.785C550.952 152.759 550.157 153.063 549.399 153.291C548.642 153.595 547.847 153.9 547.013 154.204C545.953 151.314 544.855 148.501 543.719 145.764C542.583 142.95 541.484 140.099 540.424 137.209C540.727 136.981 540.992 136.753 541.219 136.525C541.522 136.297 541.863 136.107 542.242 135.955C545.499 140.517 548.604 143.863 551.558 145.992C556.254 149.033 560.874 150.554 565.418 150.554C568.978 150.554 571.97 149.451 574.393 147.246C576.363 145.269 577.347 142.874 577.347 140.061C577.347 138.236 576.628 136.601 575.189 135.156C574.886 134.928 574.507 134.662 574.053 134.358C573.598 134.054 573.068 133.712 572.462 133.332C571.477 132.723 570.19 132.115 568.599 131.507C567.009 130.822 565.077 130.1 562.805 129.34C559.245 128.123 556.292 127.021 553.944 126.032C551.596 124.968 549.816 123.941 548.604 122.953C544.06 120.139 541.787 116.413 541.787 111.775C541.787 107.517 543.794 104.133 547.809 101.624C550.838 99.7233 554.625 98.7729 559.17 98.7729C563.108 98.7729 567.16 99.5332 571.326 101.054C571.932 100.902 572.576 100.636 573.257 100.256C573.939 99.7994 574.696 99.2671 575.53 98.6588C576.59 101.396 577.65 104.171 578.711 106.985C579.771 109.722 580.831 112.498 581.892 115.311C581.513 115.463 581.134 115.653 580.756 115.881C580.453 116.109 580.112 116.299 579.733 116.451C577.84 112.802 575.302 109.836 572.121 107.555C567.425 104.438 563.108 102.879 559.17 102.879C556.292 102.879 554.019 103.373 552.353 104.362C549.854 105.73 548.604 108.087 548.604 111.433C548.604 113.562 549.702 115.387 551.899 116.908C552.202 117.06 552.505 117.212 552.808 117.364C553.111 117.516 553.451 117.668 553.83 117.82C554.89 118.428 556.216 119.075 557.806 119.759C559.397 120.443 561.177 121.09 563.146 121.698C567.236 122.991 570.606 124.283 573.257 125.576C575.984 126.792 578.067 127.933 579.506 128.998C582.611 131.507 584.164 135.042 584.164 139.605Z" stroke="#5B111F" stroke-width="2" mask="url(#path-3-outside-1_5715_110104)"/>
<path d="M600.211 102.309C604.755 100.18 609.981 99.115 615.889 99.115C620.66 99.115 624.523 100.37 627.477 102.879C630.658 105.768 632.249 109.798 632.249 114.969V144.509C632.249 144.889 632.249 145.345 632.249 145.878C632.324 146.41 632.4 146.942 632.476 147.474C632.627 148.007 632.817 148.463 633.044 148.843C633.347 149.223 633.688 149.413 634.066 149.413C635.202 149.413 636.831 148.577 638.952 146.904L640.315 148.615C636.982 152.645 634.029 154.66 631.453 154.66C628.121 154.66 626.114 152.531 625.432 148.273C620.736 152.531 614.753 154.66 607.482 154.66C604.982 154.66 602.71 154.394 600.665 153.862C598.696 153.329 597.029 152.493 595.666 151.352C592.864 148.995 591.463 145.688 591.463 141.43C591.463 138.236 592.523 135.385 594.644 132.875C596.84 130.29 599.642 128.161 603.051 126.488C608.883 123.447 616.305 121.356 625.318 120.215V113.144C625.318 110.178 624.409 107.783 622.592 105.958C621.531 104.894 620.282 104.133 618.843 103.677C617.479 103.221 616.002 102.993 614.412 102.993C611.382 102.993 608.807 103.601 606.686 104.818C605.399 105.654 604.376 106.491 603.619 107.327C602.861 108.087 602.483 108.962 602.483 109.95V110.521C602.483 114.246 600.854 116.109 597.597 116.109C594.644 116.109 593.167 114.398 593.167 110.977C593.167 107.403 595.515 104.514 600.211 102.309ZM625.318 124.549C618.653 125.234 612.48 127.135 606.8 130.252C601.65 133.142 599.074 136.829 599.074 141.315C599.074 143.749 600.059 145.726 602.028 147.246C603.998 148.691 606.459 149.413 609.413 149.413C612.14 149.413 614.98 148.881 617.934 147.817C620.357 146.98 622.819 145.536 625.318 143.483V124.549Z" stroke="#5B111F" stroke-width="2" mask="url(#path-3-outside-1_5715_110104)"/>
<path d="M443.505 247.045L435.666 266.89H379.883V263.127C383.746 263.127 386.548 262.556 388.29 261.416C389.578 260.503 390.222 258.906 390.222 256.625V197.431C390.222 194.921 389.616 193.211 388.404 192.298C386.965 191.31 384.124 190.815 379.883 190.815V187.166H408.626V190.815C403.628 190.815 400.522 191.31 399.31 192.298C398.099 193.287 397.493 194.998 397.493 197.431V256.739C397.493 259.021 397.985 260.617 398.97 261.53C400.106 262.442 401.999 262.898 404.65 262.898H417.261C422.411 262.898 426.728 261.492 430.212 258.678C433.848 256.093 437.332 251.721 440.664 245.562L443.505 247.045Z" stroke="#5B111F" stroke-width="2" mask="url(#path-3-outside-1_5715_110104)"/>
<path d="M496.704 253.09C497.082 253.394 497.461 253.698 497.84 254.002C498.294 254.306 498.711 254.61 499.089 254.915C497.272 257.652 495.265 259.933 493.068 261.758C490.872 263.583 488.524 265.103 486.024 266.32C482.616 267.993 478.943 268.829 475.004 268.829C467.506 268.829 461.371 266.434 456.599 261.644C451.525 256.549 448.987 249.668 448.987 241C448.987 232.636 451.411 225.906 456.258 220.812C461.03 215.565 467.089 212.942 474.436 212.942C481.783 212.942 487.577 215.071 491.818 219.329C496.363 223.663 498.635 229.936 498.635 238.148C491.591 238.377 484.661 238.643 477.844 238.947C471.028 239.175 464.06 239.403 456.94 239.631C456.94 239.935 456.902 240.239 456.826 240.544C456.826 240.772 456.826 241.038 456.826 241.342C456.826 244.536 457.243 247.425 458.076 250.01C458.985 252.595 460.273 254.915 461.939 256.968C465.423 261.53 470.308 263.811 476.595 263.811C479.927 263.811 483.411 262.936 487.047 261.188C488.713 260.199 490.341 259.059 491.932 257.766C493.598 256.397 495.189 254.839 496.704 253.09ZM457.167 235.297C462.848 235.145 468.453 234.955 473.982 234.727C479.511 234.499 485.115 234.309 490.796 234.156C490.72 229.138 489.167 225.108 486.138 222.067C483.033 218.721 479.132 217.048 474.436 217.048C469.892 217.048 465.915 218.873 462.507 222.523C459.326 225.868 457.546 230.127 457.167 235.297Z" stroke="#5B111F" stroke-width="2" mask="url(#path-3-outside-1_5715_110104)"/>
<path d="M555.123 240.886C555.123 249.402 552.7 256.207 547.852 261.302C543.232 266.396 537.324 268.943 530.129 268.943C522.858 268.943 516.912 266.396 512.292 261.302C507.445 256.207 505.021 249.402 505.021 240.886C505.021 232.37 507.445 225.564 512.292 220.47C516.912 215.375 522.858 212.828 530.129 212.828C537.324 212.828 543.232 215.375 547.852 220.47C552.7 225.564 555.123 232.37 555.123 240.886ZM547.398 240.886C547.398 233.89 545.731 228.15 542.399 223.663C539.294 219.177 535.204 216.934 530.129 216.934C525.13 216.934 520.964 219.177 517.632 223.663C514.375 228.15 512.747 233.89 512.747 240.886C512.747 247.805 514.337 253.546 517.518 258.108C520.775 262.518 524.979 264.723 530.129 264.723C535.052 264.723 539.142 262.518 542.399 258.108C545.731 253.622 547.398 247.881 547.398 240.886Z" stroke="#5B111F" stroke-width="2" mask="url(#path-3-outside-1_5715_110104)"/>
<path d="M616.032 266.776H593.878V263.127C596.529 263.127 598.384 262.784 599.445 262.1C600.732 261.264 601.376 259.629 601.376 257.196V228.568C601.376 222.181 598.384 218.987 592.401 218.987C588.841 218.987 585.849 219.595 583.425 220.812C582.365 221.344 581.115 222.067 579.676 222.979C578.237 223.815 576.647 224.842 574.905 226.059V257.196C574.905 259.477 575.397 260.998 576.382 261.758C576.988 262.138 577.821 262.442 578.881 262.67C579.941 262.974 581.229 263.127 582.744 263.127V266.776H560.59V263.127C563.468 263.127 565.551 262.67 566.838 261.758C567.596 260.998 567.975 259.477 567.975 257.196V225.716C567.975 223.663 567.596 222.371 566.838 221.839C565.778 221.002 563.847 220.584 561.044 220.584C560.893 220.204 560.779 219.786 560.703 219.329C560.703 218.873 560.628 218.455 560.476 218.075C562.9 217.238 565.286 216.402 567.634 215.565C570.057 214.729 572.481 213.893 574.905 213.056V221.154C581.343 215.832 587.894 213.17 594.559 213.17C599.179 213.17 602.626 214.501 604.898 217.162C607.17 219.9 608.306 223.777 608.306 228.796V257.082C608.306 259.439 608.761 260.998 609.669 261.758C610.275 262.138 611.109 262.442 612.169 262.67C613.229 262.974 614.517 263.127 616.032 263.127V266.776Z" stroke="#5B111F" stroke-width="2" mask="url(#path-3-outside-1_5715_110104)"/>
</svg>
