<svg width="1920" height="1080" viewBox="0 0 1920 1080" fill="none" xmlns="http://www.w3.org/2000/svg">
  <rect width="1920" height="1080" fill="#f5f5d9"/>
  <rect x="100" y="100" width="1720" height="880" rx="24" fill="#ebe8cc" stroke="#c9a5a6" stroke-width="2"/>
  <!-- E-commerce layout -->
  <rect x="150" y="150" width="350" height="780" rx="12" fill="#e0ddc0"/>
  <!-- Sidebar navigation -->
  <rect x="170" y="180" width="200" height="24" rx="4" fill="#911A1C"/>
  <rect x="170" y="230" width="150" height="16" rx="4" fill="#a85456"/>
  <rect x="170" y="260" width="150" height="16" rx="4" fill="#a85456"/>
  <rect x="170" y="290" width="150" height="16" rx="4" fill="#a85456"/>
  <!-- Main content - Product grid -->
  <rect x="550" y="150" width="1220" height="400" rx="12" fill="#911A1C" fill-opacity="0.1"/>
  <text x="1160" y="370" text-anchor="middle" fill="#911A1C" font-family="system-ui" font-size="48" font-weight="600">SANDRA JORDAN</text>
  <text x="1160" y="420" text-anchor="middle" fill="#a85456" font-family="system-ui" font-size="24">Prima Alpaca Collection</text>
  <!-- Product cards -->
  <rect x="550" y="580" width="380" height="350" rx="12" fill="#e0ddc0"/>
  <rect x="570" y="600" width="340" height="220" rx="8" fill="#c9a5a6"/>
  <rect x="570" y="840" width="200" height="20" rx="4" fill="#911A1C"/>
  <rect x="570" y="875" width="100" height="16" rx="4" fill="#6d1315"/>
  <rect x="970" y="580" width="380" height="350" rx="12" fill="#e0ddc0"/>
  <rect x="990" y="600" width="340" height="220" rx="8" fill="#c9a5a6"/>
  <rect x="990" y="840" width="200" height="20" rx="4" fill="#911A1C"/>
  <rect x="990" y="875" width="100" height="16" rx="4" fill="#6d1315"/>
  <rect x="1390" y="580" width="380" height="350" rx="12" fill="#e0ddc0"/>
  <rect x="1410" y="600" width="340" height="220" rx="8" fill="#c9a5a6"/>
  <rect x="1410" y="840" width="200" height="20" rx="4" fill="#911A1C"/>
  <rect x="1410" y="875" width="100" height="16" rx="4" fill="#6d1315"/>
</svg>
