<svg width="1200" height="900" viewBox="0 0 1200 900" fill="none" xmlns="http://www.w3.org/2000/svg">
  <rect width="1200" height="900" fill="#f5f5d9"/>
  <rect x="50" y="50" width="1100" height="800" rx="16" fill="#ebe8cc"/>
  <!-- Luxury brand logos placeholder -->
  <text x="600" y="90" text-anchor="middle" fill="#911A1C" font-family="system-ui" font-size="24" font-weight="600">Luxury E-commerce Benchmark</text>
  <rect x="100" y="140" width="300" height="180" rx="12" fill="#e0ddc0"/>
  <text x="250" y="240" text-anchor="middle" fill="#a85456" font-family="system-ui" font-size="16">Loro Piana</text>
  <rect x="450" y="140" width="300" height="180" rx="12" fill="#e0ddc0"/>
  <text x="600" y="240" text-anchor="middle" fill="#a85456" font-family="system-ui" font-size="16">Brunello Cucinelli</text>
  <rect x="800" y="140" width="300" height="180" rx="12" fill="#e0ddc0"/>
  <text x="950" y="240" text-anchor="middle" fill="#a85456" font-family="system-ui" font-size="16">Johnstons of Elgin</text>
  <!-- Analysis matrix -->
  <rect x="100" y="370" width="1000" height="430" rx="12" fill="#e0ddc0"/>
  <line x1="100" y1="430" x2="1100" y2="430" stroke="#c9a5a6" stroke-width="2"/>
  <line x1="300" y1="370" x2="300" y2="800" stroke="#c9a5a6" stroke-width="2"/>
  <line x1="500" y1="370" x2="500" y2="800" stroke="#c9a5a6" stroke-width="2"/>
  <line x1="700" y1="370" x2="700" y2="800" stroke="#c9a5a6" stroke-width="2"/>
  <line x1="900" y1="370" x2="900" y2="800" stroke="#c9a5a6" stroke-width="2"/>
  <!-- Highlights -->
  <circle cx="400" cy="520" r="15" fill="#911A1C"/>
  <circle cx="600" cy="580" r="15" fill="#911A1C"/>
  <circle cx="800" cy="500" r="15" fill="#911A1C"/>
  <circle cx="1000" cy="620" r="15" fill="#911A1C"/>
</svg>
