<svg width="2100" height="900" viewBox="0 0 2100 900" fill="none" xmlns="http://www.w3.org/2000/svg">
  <rect width="2100" height="900" fill="#f5f5d9"/>
  <!-- Desktop mockup -->
  <rect x="100" y="100" width="1200" height="700" rx="16" fill="#ebe8cc" stroke="#c9a5a6" stroke-width="2"/>
  <!-- Browser chrome -->
  <rect x="100" y="100" width="1200" height="40" rx="16" fill="#e0ddc0"/>
  <circle cx="130" cy="120" r="8" fill="#911A1C"/>
  <circle cx="155" cy="120" r="8" fill="#a85456"/>
  <circle cx="180" cy="120" r="8" fill="#c9a5a6"/>
  <rect x="300" y="110" width="700" height="20" rx="10" fill="#c9a5a6"/>
  <!-- E-commerce content -->
  <rect x="120" y="160" width="1160" height="60" rx="4" fill="#911A1C"/>
  <text x="700" y="198" text-anchor="middle" fill="#f5f5d9" font-family="serif" font-size="18" font-weight="300">SANDRA JORDAN</text>
  <!-- Hero -->
  <rect x="120" y="240" width="560" height="300" rx="8" fill="#c9a5a6" fill-opacity="0.2"/>
  <rect x="700" y="240" width="560" height="300" rx="8" fill="#e0ddc0"/>
  <text x="980" y="380" text-anchor="middle" fill="#911A1C" font-family="serif" font-size="32">Prima Alpaca</text>
  <rect x="880" y="420" width="200" height="40" rx="20" fill="#911A1C"/>
  <!-- Products -->
  <rect x="120" y="560" width="280" height="220" rx="8" fill="#e0ddc0"/>
  <rect x="420" y="560" width="280" height="220" rx="8" fill="#e0ddc0"/>
  <rect x="720" y="560" width="280" height="220" rx="8" fill="#e0ddc0"/>
  <rect x="1020" y="560" width="240" height="220" rx="8" fill="#e0ddc0"/>
  <!-- Mobile mockup -->
  <rect x="1400" y="150" width="280" height="560" rx="24" fill="#ebe8cc" stroke="#911A1C" stroke-width="2"/>
  <rect x="1420" y="180" width="240" height="500" rx="8" fill="#f5f5d9"/>
  <rect x="1420" y="180" width="240" height="50" rx="8" fill="#911A1C"/>
  <text x="1540" y="212" text-anchor="middle" fill="#f5f5d9" font-family="serif" font-size="12">SANDRA JORDAN</text>
  <rect x="1440" y="250" width="200" height="150" rx="8" fill="#c9a5a6" fill-opacity="0.2"/>
  <rect x="1440" y="420" width="95" height="120" rx="6" fill="#e0ddc0"/>
  <rect x="1545" y="420" width="95" height="120" rx="6" fill="#e0ddc0"/>
  <rect x="1440" y="560" width="200" height="80" rx="6" fill="#e0ddc0"/>
  <!-- Tablet mockup -->
  <rect x="1750" y="200" width="250" height="350" rx="16" fill="#ebe8cc" stroke="#c9a5a6" stroke-width="2"/>
  <rect x="1770" y="220" width="210" height="310" rx="8" fill="#f5f5d9"/>
  <rect x="1770" y="220" width="210" height="40" rx="8" fill="#911A1C"/>
  <rect x="1790" y="280" width="170" height="100" rx="6" fill="#c9a5a6" fill-opacity="0.2"/>
  <rect x="1790" y="400" width="80" height="80" rx="4" fill="#e0ddc0"/>
  <rect x="1880" y="400" width="80" height="80" rx="4" fill="#e0ddc0"/>
  <text x="600" y="850" text-anchor="middle" fill="#911A1C" font-family="system-ui" font-size="24" font-weight="600">Responsive E-commerce Design</text>
</svg>
