<svg width="1200" height="900" viewBox="0 0 1200 900" fill="none" xmlns="http://www.w3.org/2000/svg">
  <rect width="1200" height="900" fill="#f5f5d9"/>
  <!-- UI Design mockup -->
  <rect x="50" y="50" width="1100" height="800" rx="16" fill="#ebe8cc" stroke="#911A1C" stroke-width="2"/>
  <!-- Header -->
  <rect x="70" y="70" width="1060" height="60" rx="8" fill="#911A1C"/>
  <text x="600" y="108" text-anchor="middle" fill="#f5f5d9" font-family="serif" font-size="20" font-weight="300">SANDRA JORDAN</text>
  <!-- Hero section -->
  <rect x="70" y="150" width="520" height="400" rx="12" fill="#c9a5a6" fill-opacity="0.3"/>
  <rect x="620" y="150" width="510" height="400" rx="12" fill="#e0ddc0"/>
  <text x="875" y="280" text-anchor="middle" fill="#911A1C" font-family="serif" font-size="36" font-weight="300">New Collection</text>
  <text x="875" y="330" text-anchor="middle" fill="#a85456" font-family="system-ui" font-size="16">Discover the finest alpaca textiles</text>
  <rect x="775" y="370" width="200" height="50" rx="25" fill="#911A1C"/>
  <text x="875" y="402" text-anchor="middle" fill="#f5f5d9" font-family="system-ui" font-size="14">Shop Now</text>
  <!-- Product cards -->
  <rect x="70" y="580" width="340" height="250" rx="12" fill="#e0ddc0"/>
  <rect x="90" y="600" width="300" height="150" rx="8" fill="#c9a5a6"/>
  <text x="240" y="790" text-anchor="middle" fill="#911A1C" font-family="serif" font-size="18">Alpaca Throw</text>
  <text x="240" y="815" text-anchor="middle" fill="#6d1315" font-family="system-ui" font-size="14">$480</text>
  <rect x="430" y="580" width="340" height="250" rx="12" fill="#e0ddc0"/>
  <rect x="450" y="600" width="300" height="150" rx="8" fill="#c9a5a6"/>
  <text x="600" y="790" text-anchor="middle" fill="#911A1C" font-family="serif" font-size="18">Cashmere Scarf</text>
  <text x="600" y="815" text-anchor="middle" fill="#6d1315" font-family="system-ui" font-size="14">$320</text>
  <rect x="790" y="580" width="340" height="250" rx="12" fill="#e0ddc0"/>
  <rect x="810" y="600" width="300" height="150" rx="8" fill="#c9a5a6"/>
  <text x="960" y="790" text-anchor="middle" fill="#911A1C" font-family="serif" font-size="18">Wool Blanket</text>
  <text x="960" y="815" text-anchor="middle" fill="#6d1315" font-family="system-ui" font-size="14">$650</text>
</svg>
