<svg width="1200" height="900" viewBox="0 0 1200 900" fill="none" xmlns="http://www.w3.org/2000/svg">
  <rect width="1200" height="900" fill="#f5f5d9"/>
  <!-- Code editor mockup -->
  <rect x="50" y="50" width="700" height="800" rx="12" fill="#911A1C" stroke="#c9a5a6" stroke-width="2"/>
  <!-- Editor header -->
  <circle cx="80" cy="80" r="8" fill="#f5f5d9" fill-opacity="0.3"/>
  <circle cx="105" cy="80" r="8" fill="#f5f5d9" fill-opacity="0.5"/>
  <circle cx="130" cy="80" r="8" fill="#f5f5d9" fill-opacity="0.7"/>
  <rect x="200" y="70" width="300" height="20" rx="4" fill="#6d1315"/>
  <!-- Code lines -->
  <rect x="70" y="120" width="40" height="14" rx="2" fill="#f5f5d9"/>
  <rect x="120" y="120" width="100" height="14" rx="2" fill="#f5f5d9" fill-opacity="0.6"/>
  <rect x="230" y="120" width="80" height="14" rx="2" fill="#f5f5d9" fill-opacity="0.8"/>
  <rect x="90" y="150" width="60" height="14" rx="2" fill="#f5f5d9" fill-opacity="0.4"/>
  <rect x="160" y="150" width="120" height="14" rx="2" fill="#f5f5d9"/>
  <rect x="90" y="180" width="80" height="14" rx="2" fill="#f5f5d9" fill-opacity="0.4"/>
  <rect x="180" y="180" width="200" height="14" rx="2" fill="#f5f5d9" fill-opacity="0.6"/>
  <rect x="90" y="210" width="40" height="14" rx="2" fill="#f5f5d9" fill-opacity="0.4"/>
  <rect x="90" y="240" width="60" height="14" rx="2" fill="#f5f5d9" fill-opacity="0.4"/>
  <rect x="160" y="240" width="150" height="14" rx="2" fill="#f5f5d9" fill-opacity="0.8"/>
  <rect x="110" y="270" width="100" height="14" rx="2" fill="#f5f5d9"/>
  <rect x="220" y="270" width="80" height="14" rx="2" fill="#f5f5d9" fill-opacity="0.6"/>
  <rect x="110" y="300" width="200" height="14" rx="2" fill="#f5f5d9" fill-opacity="0.4"/>
  <rect x="90" y="330" width="40" height="14" rx="2" fill="#f5f5d9" fill-opacity="0.4"/>
  <rect x="70" y="360" width="40" height="14" rx="2" fill="#f5f5d9" fill-opacity="0.4"/>
  <!-- More code lines -->
  <rect x="70" y="400" width="60" height="14" rx="2" fill="#f5f5d9"/>
  <rect x="140" y="400" width="180" height="14" rx="2" fill="#f5f5d9" fill-opacity="0.6"/>
  <rect x="90" y="430" width="100" height="14" rx="2" fill="#f5f5d9" fill-opacity="0.4"/>
  <rect x="200" y="430" width="150" height="14" rx="2" fill="#f5f5d9" fill-opacity="0.8"/>
  <!-- Browser preview -->
  <rect x="780" y="50" width="370" height="800" rx="12" fill="#ebe8cc" stroke="#911A1C" stroke-width="2"/>
  <rect x="800" y="70" width="330" height="30" rx="4" fill="#e0ddc0"/>
  <circle cx="820" cy="85" r="6" fill="#c9a5a6"/>
  <rect x="840" y="78" width="200" height="14" rx="4" fill="#c9a5a6"/>
  <!-- Preview content -->
  <rect x="800" y="120" width="330" height="200" rx="8" fill="#911A1C" fill-opacity="0.15"/>
  <rect x="820" y="150" width="150" height="20" rx="4" fill="#911A1C"/>
  <rect x="820" y="180" width="250" height="12" rx="4" fill="#a85456"/>
  <rect x="820" y="220" width="80" height="30" rx="15" fill="#911A1C"/>
  <rect x="800" y="340" width="155" height="120" rx="8" fill="#e0ddc0"/>
  <rect x="965" y="340" width="155" height="120" rx="8" fill="#e0ddc0"/>
  <rect x="800" y="480" width="330" height="100" rx="8" fill="#c9a5a6" fill-opacity="0.5"/>
  <text x="965" y="880" text-anchor="middle" fill="#911A1C" font-family="system-ui" font-size="20" font-weight="600">Development</text>
</svg>
