<svg width="1200" height="900" viewBox="0 0 1200 900" fill="none" xmlns="http://www.w3.org/2000/svg">
  <rect width="1200" height="900" fill="#f5f5d9"/>
  <rect x="50" y="50" width="1100" height="800" rx="16" fill="#ebe8cc"/>
  <!-- Competitor logos placeholder -->
  <rect x="100" y="120" width="200" height="150" rx="8" fill="#e0ddc0"/>
  <rect x="330" y="120" width="200" height="150" rx="8" fill="#e0ddc0"/>
  <rect x="560" y="120" width="200" height="150" rx="8" fill="#e0ddc0"/>
  <rect x="790" y="120" width="200" height="150" rx="8" fill="#e0ddc0"/>
  <!-- Analysis table -->
  <rect x="100" y="320" width="1000" height="480" rx="8" fill="#e0ddc0"/>
  <line x1="100" y1="380" x2="1100" y2="380" stroke="#c9a5a6" stroke-width="2"/>
  <line x1="350" y1="320" x2="350" y2="800" stroke="#c9a5a6" stroke-width="2"/>
  <line x1="550" y1="320" x2="550" y2="800" stroke="#c9a5a6" stroke-width="2"/>
  <line x1="750" y1="320" x2="750" y2="800" stroke="#c9a5a6" stroke-width="2"/>
  <text x="600" y="70" text-anchor="middle" fill="#911A1C" font-family="system-ui" font-size="24" font-weight="600">Benchmark Analysis</text>
  <circle cx="450" cy="500" r="20" fill="#911A1C"/>
  <circle cx="650" cy="550" r="20" fill="#911A1C"/>
  <circle cx="850" cy="480" r="20" fill="#911A1C"/>
</svg>
