<svg width="800" height="600" viewBox="0 0 800 600" fill="none" xmlns="http://www.w3.org/2000/svg">
  <rect width="800" height="600" fill="#f5f5d9"/>
  <!-- Mobile screens -->
  <rect x="100" y="50" width="250" height="500" rx="24" fill="#ebe8cc" stroke="#911A1C" stroke-width="2"/>
  <rect x="450" y="50" width="250" height="500" rx="24" fill="#ebe8cc" stroke="#c9a5a6" stroke-width="2"/>
  <!-- Screen 1 content -->
  <rect x="120" y="80" width="210" height="140" rx="12" fill="#911A1C" fill-opacity="0.2"/>
  <rect x="140" y="110" width="120" height="16" rx="4" fill="#911A1C"/>
  <rect x="140" y="140" width="170" height="10" rx="4" fill="#a85456"/>
  <rect x="140" y="160" width="80" height="30" rx="15" fill="#911A1C"/>
  <rect x="120" y="240" width="100" height="80" rx="8" fill="#e0ddc0"/>
  <rect x="230" y="240" width="100" height="80" rx="8" fill="#e0ddc0"/>
  <rect x="120" y="340" width="210" height="60" rx="8" fill="#c9a5a6" fill-opacity="0.5"/>
  <rect x="120" y="420" width="210" height="60" rx="8" fill="#c9a5a6" fill-opacity="0.5"/>
  <!-- Screen 2 content -->
  <rect x="470" y="80" width="210" height="200" rx="12" fill="#e0ddc0"/>
  <circle cx="575" cy="180" r="30" fill="#911A1C"/>
  <rect x="470" y="300" width="150" height="20" rx="4" fill="#911A1C"/>
  <rect x="470" y="330" width="210" height="12" rx="4" fill="#a85456"/>
  <rect x="470" y="360" width="180" height="12" rx="4" fill="#a85456"/>
  <rect x="470" y="400" width="100" height="36" rx="18" fill="#911A1C"/>
  <rect x="580" y="400" width="100" height="36" rx="18" fill="#f5f5d9" stroke="#911A1C" stroke-width="2"/>
  <text x="400" y="580" text-anchor="middle" fill="#a85456" font-family="system-ui" font-size="16">Mobile Experience</text>
</svg>
