<svg width="2100" height="900" viewBox="0 0 2100 900" fill="none" xmlns="http://www.w3.org/2000/svg">
  <rect width="2100" height="900" fill="#f5f5d9"/>
  <!-- Desktop mockup -->
  <rect x="100" y="100" width="1200" height="700" rx="16" fill="#ebe8cc" stroke="#c9a5a6" stroke-width="2"/>
  <!-- Browser chrome -->
  <rect x="100" y="100" width="1200" height="40" rx="16" fill="#911A1C"/>
  <circle cx="130" cy="120" r="8" fill="#f5f5d9" fill-opacity="0.3"/>
  <circle cx="155" cy="120" r="8" fill="#f5f5d9" fill-opacity="0.5"/>
  <circle cx="180" cy="120" r="8" fill="#f5f5d9" fill-opacity="0.7"/>
  <rect x="300" y="110" width="700" height="20" rx="10" fill="#6d1315"/>
  <!-- Content -->
  <rect x="120" y="160" width="280" height="620" rx="8" fill="#e0ddc0"/>
  <rect x="420" y="160" width="860" height="400" rx="12" fill="#911A1C" fill-opacity="0.15"/>
  <rect x="460" y="200" width="300" height="40" rx="4" fill="#911A1C"/>
  <rect x="460" y="260" width="500" height="20" rx="4" fill="#a85456"/>
  <rect x="460" y="300" width="400" height="20" rx="4" fill="#a85456"/>
  <rect x="460" y="360" width="140" height="50" rx="25" fill="#911A1C"/>
  <!-- Cards row -->
  <rect x="420" y="580" width="270" height="180" rx="12" fill="#e0ddc0"/>
  <rect x="710" y="580" width="270" height="180" rx="12" fill="#e0ddc0"/>
  <rect x="1000" y="580" width="270" height="180" rx="12" fill="#e0ddc0"/>
  <!-- Mobile mockup -->
  <rect x="1400" y="150" width="300" height="600" rx="24" fill="#ebe8cc" stroke="#911A1C" stroke-width="2"/>
  <rect x="1420" y="180" width="260" height="540" rx="8" fill="#f5f5d9"/>
  <rect x="1440" y="200" width="220" height="150" rx="8" fill="#911A1C" fill-opacity="0.2"/>
  <rect x="1440" y="370" width="100" height="80" rx="8" fill="#e0ddc0"/>
  <rect x="1560" y="370" width="100" height="80" rx="8" fill="#e0ddc0"/>
  <rect x="1440" y="470" width="220" height="60" rx="8" fill="#c9a5a6" fill-opacity="0.5"/>
  <rect x="1440" y="550" width="220" height="60" rx="8" fill="#c9a5a6" fill-opacity="0.5"/>
  <!-- Tablet mockup -->
  <rect x="1750" y="200" width="250" height="350" rx="16" fill="#ebe8cc" stroke="#c9a5a6" stroke-width="2"/>
  <rect x="1770" y="220" width="210" height="310" rx="8" fill="#f5f5d9"/>
  <rect x="1790" y="240" width="170" height="100" rx="8" fill="#911A1C" fill-opacity="0.15"/>
  <rect x="1790" y="360" width="80" height="60" rx="6" fill="#e0ddc0"/>
  <rect x="1880" y="360" width="80" height="60" rx="6" fill="#e0ddc0"/>
  <text x="600" y="850" text-anchor="middle" fill="#911A1C" font-family="system-ui" font-size="24" font-weight="600">Responsive Design Showcase</text>
</svg>
