<svg width="1200" height="900" viewBox="0 0 1200 900" fill="none" xmlns="http://www.w3.org/2000/svg">
  <rect width="1200" height="900" fill="#f5f5d9"/>
  <!-- Wireframe screens -->
  <rect x="50" y="100" width="350" height="700" rx="16" fill="#ebe8cc" stroke="#c9a5a6" stroke-width="2"/>
  <rect x="425" y="100" width="350" height="700" rx="16" fill="#ebe8cc" stroke="#c9a5a6" stroke-width="2"/>
  <rect x="800" y="100" width="350" height="700" rx="16" fill="#ebe8cc" stroke="#c9a5a6" stroke-width="2"/>
  <!-- Screen 1 content -->
  <rect x="70" y="130" width="310" height="40" rx="4" fill="#e0ddc0"/>
  <rect x="70" y="190" width="310" height="200" rx="8" fill="#e0ddc0"/>
  <rect x="70" y="410" width="150" height="20" rx="4" fill="#c9a5a6"/>
  <rect x="70" y="450" width="310" height="80" rx="8" fill="#c9a5a6" fill-opacity="0.5"/>
  <rect x="70" y="550" width="310" height="80" rx="8" fill="#c9a5a6" fill-opacity="0.5"/>
  <rect x="70" y="650" width="310" height="80" rx="8" fill="#c9a5a6" fill-opacity="0.5"/>
  <!-- Screen 2 content -->
  <rect x="445" y="130" width="310" height="300" rx="8" fill="#e0ddc0"/>
  <rect x="445" y="450" width="200" height="24" rx="4" fill="#c9a5a6"/>
  <rect x="445" y="490" width="310" height="16" rx="4" fill="#c9a5a6" fill-opacity="0.5"/>
  <rect x="445" y="520" width="280" height="16" rx="4" fill="#c9a5a6" fill-opacity="0.5"/>
  <rect x="445" y="560" width="150" height="40" rx="20" fill="#911A1C"/>
  <!-- Screen 3 content -->
  <rect x="820" y="130" width="80" height="80" rx="40" fill="#e0ddc0"/>
  <rect x="920" y="150" width="180" height="20" rx="4" fill="#c9a5a6"/>
  <rect x="920" y="180" width="120" height="16" rx="4" fill="#c9a5a6" fill-opacity="0.5"/>
  <rect x="820" y="240" width="310" height="100" rx="8" fill="#c9a5a6" fill-opacity="0.5"/>
  <rect x="820" y="360" width="310" height="100" rx="8" fill="#c9a5a6" fill-opacity="0.5"/>
  <rect x="820" y="480" width="310" height="100" rx="8" fill="#c9a5a6" fill-opacity="0.5"/>
  <!-- Labels -->
  <text x="225" y="70" text-anchor="middle" fill="#a85456" font-family="system-ui" font-size="14">Home</text>
  <text x="600" y="70" text-anchor="middle" fill="#a85456" font-family="system-ui" font-size="14">Detail</text>
  <text x="975" y="70" text-anchor="middle" fill="#a85456" font-family="system-ui" font-size="14">Profile</text>
  <text x="600" y="860" text-anchor="middle" fill="#911A1C" font-family="system-ui" font-size="20" font-weight="600">Wireframes</text>
</svg>
